<svg xmlns="http://www.w3.org/2000/svg" viewBox="0 0 1024 1024"><rect width="1024" height="1024" fill="#1E3F7C"/><g transform="translate(304 200) scale(3.25)"><path fill="#D6F22E" d="M64 4C30 4 4 31 4 64c0 33 25 54 43 79 6 8 8 15 8 21v12l9 12 9-12v-12c0-6 2-13 8-21 18-25 43-46 43-79C124 31 98 4 64 4Z"/><circle cx="64" cy="64" r="38" fill="#1E3F7C"/><g fill="#D6F22E"><circle cx="64" cy="64" r="5.5"/><circle cx="64" cy="43" r="5.5"/><circle cx="82" cy="54" r="5.5"/><circle cx="82" cy="75" r="5.5"/><circle cx="64" cy="85" r="5.5"/><circle cx="46" cy="75" r="5.5"/><circle cx="46" cy="54" r="5.5"/></g><path stroke="#1E3F7C" stroke-width="3" d="M55 166h18m-18 7h18"/></g></svg>